<svg width="250" height="188" viewBox="0 0 250 188" fill="none" xmlns="http://www.w3.org/2000/svg">
<path fill-rule="evenodd" clip-rule="evenodd" d="M34.6453 0.406291C19.0251 2.44638 6.22439 13.5383 1.30401 29.2972L0 33.4731V93.8851V154.297L1.30401 158.473C5.73552 172.666 16.5818 183.107 30.6392 186.71C34.289 187.645 39.9321 187.705 125 187.705C210.068 187.705 215.711 187.645 219.361 186.71C233.445 183.1 244.256 172.694 248.696 158.473L250 154.297V93.8851V33.4731L248.696 29.2972C244.298 15.2125 233.661 4.88179 219.646 1.08391C216.28 0.171883 210.027 0.0989427 127.227 0.00929902C78.2673 -0.0435963 36.7255 0.134576 34.6453 0.406291ZM218.625 13.016C223.195 14.5689 228.352 17.9536 231.368 21.379C234.234 24.6351 237.206 30.7988 237.987 35.1067C238.817 39.688 238.817 148.082 237.987 152.664C237.206 156.971 234.234 163.135 231.368 166.391C228.23 169.956 223.057 173.279 218.33 174.765L214.365 176.012H125H35.6347L31.6704 174.765C26.9432 173.279 21.7695 169.956 18.632 166.391C15.7661 163.135 12.794 156.971 12.0134 152.664C11.1826 148.082 11.1826 39.688 12.0134 35.1067C12.7272 31.1697 15.6587 24.8528 18.1704 21.8406C22.3803 16.7922 29.4438 12.9553 36.1915 12.0527C38.029 11.8072 78.995 11.6401 127.227 11.6819L214.922 11.7582L218.625 13.016ZM32.8508 31.0605C29.1308 33.1179 27.7968 36.4592 29.5891 39.2326C30.1581 40.1134 43.2767 53.1596 58.7416 68.2242C74.2066 83.2888 86.9332 95.8222 87.0228 96.0756C87.113 96.3289 75.5874 107.493 61.4104 120.886C29.1503 151.361 29.7884 150.705 29.7884 153.364C29.7884 157.852 34.7433 160.979 38.515 158.871C39.181 158.499 52.2806 146.293 67.6258 131.747C82.971 117.201 95.7288 105.229 95.9766 105.143C96.2244 105.057 102.223 110.632 109.307 117.532L122.186 130.077L122.773 130.568L123.33 130.846L124.165 131.125H125H125.557L126.392 130.846L127.227 130.568L127.801 130.077L140.989 117.259L154.176 104.441L157.266 107.42C158.965 109.058 170.253 119.76 182.35 131.203C194.446 142.645 205.994 153.572 208.013 155.485C210.032 157.399 212.35 159.132 213.164 159.336C216.85 160.262 220.768 157.277 220.768 153.544C220.768 150.68 221.795 151.74 189.118 120.862L162.757 95.952L165.454 93.3172C166.938 91.8679 179.677 79.4625 193.764 65.7504C207.851 52.0377 219.842 40.1017 220.411 39.2248C221.822 37.0522 221.261 34.2649 219.036 32.3929C216.8 30.511 214.894 30.085 212.948 31.0321C212.077 31.4558 192.056 50.5945 168.458 73.5622C144.86 96.5299 125.303 115.322 125 115.322C124.697 115.322 105.134 96.5299 81.5289 73.5622C57.9232 50.5945 38.0657 31.4982 37.4009 31.1262C35.8936 30.2838 34.2973 30.2604 32.8508 31.0605Z" fill="white"/>
</svg>
