<svg width="104" height="90" viewBox="0 0 104 90" fill="none" xmlns="http://www.w3.org/2000/svg">
<path d="M98.2771 0H5.72289C2.56223 0 0 2.56223 0 5.72289V5.72291C0 8.88357 2.56223 11.4458 5.72289 11.4458H98.2771C101.438 11.4458 104 8.88357 104 5.72289C104 2.56223 101.438 0 98.2771 0Z" fill="#D4D4D6"/>
<path d="M98.2771 39.2771H5.72289C2.56223 39.2771 0 41.8393 0 45V45C0 48.1607 2.56223 50.7229 5.72289 50.7229H98.2771C101.438 50.7229 104 48.1607 104 45C104 41.8393 101.438 39.2771 98.2771 39.2771Z" fill="#D4D4D6"/>
<path d="M98.2771 78.5542H5.72289C2.56223 78.5542 0 81.1164 0 84.2771V84.2771C0 87.4378 2.56223 90 5.72289 90H98.2771C101.438 90 104 87.4378 104 84.2771C104 81.1164 101.438 78.5542 98.2771 78.5542Z" fill="#D4D4D6"/>
</svg>
