<svg width="140" height="64" viewBox="0 0 140 64" fill="none" xmlns="http://www.w3.org/2000/svg">
<path d="M54.5552 44.5114V15.1283H43.7154V8.22772H88.6222V15.1283H62.7825V44.5114H54.5552ZM77.0068 62C76.0062 62 74.9686 61.8887 73.8939 61.6661C72.8191 61.4806 71.763 61.1467 70.7253 60.6644C69.6877 60.1821 68.6871 59.57 67.7235 58.828C66.76 58.0489 65.8891 57.1028 65.1109 55.9898L69.8359 50.9257C71.9483 53.5969 74.2459 54.9325 76.7289 54.9325C78.6189 54.9325 80.0271 54.4687 80.9536 53.5412C81.8801 52.5766 82.3433 50.8329 82.3433 48.3101V15.1252H68.1682V8.22772H90.5148V48.9779C90.5148 50.7587 90.2739 52.4468 89.7922 54.0421C89.3475 55.6003 88.5877 56.973 87.513 58.1602C86.4383 59.3474 85.0301 60.2934 83.2883 60.9983C81.5836 61.6661 79.4898 62 77.0068 62Z" fill="#61DAFB"/>
<path d="M23.976 61.944C21.768 61.944 19.824 61.8 18.144 61.512C16.512 61.224 15.144 60.744 14.04 60.072C12.936 59.4 12.096 58.464 11.52 57.264C10.992 56.112 10.728 54.648 10.728 52.872C10.728 50.184 10.824 47.64 11.016 45.24C11.256 42.792 11.376 40.272 11.376 37.68C11.376 36.96 11.232 36.24 10.944 35.52C10.656 34.8 10.104 34.176 9.288 33.648C8.52 33.12 7.416 32.688 5.976 32.352C4.584 32.016 2.76 31.848 0.503998 31.848V30.12C2.76 30.12 4.584 29.952 5.976 29.616C7.416 29.28 8.52 28.848 9.288 28.32C10.104 27.792 10.656 27.168 10.944 26.448C11.232 25.728 11.376 25.008 11.376 24.288C11.376 21.984 11.256 19.488 11.016 16.8C10.824 14.112 10.728 11.544 10.728 9.09599C10.728 7.31999 10.992 5.85599 11.52 4.70399C12.096 3.50399 12.936 2.56799 14.04 1.89599C15.144 1.22399 16.512 0.743986 18.144 0.455986C19.824 0.167986 21.768 0.0239868 23.976 0.0239868H27.432V1.60799H23.112C21 1.60799 19.272 1.77599 17.928 2.11199C16.632 2.39999 15.6 2.87999 14.832 3.55199C14.064 4.17599 13.536 4.99199 13.248 5.99999C13.008 6.95999 12.888 8.08799 12.888 9.38399C12.888 11.592 12.96 13.92 13.104 16.368C13.296 18.768 13.392 21.144 13.392 23.496C13.392 25.512 12.984 27.144 12.168 28.392C11.4 29.592 9.816 30.408 7.416 30.84V31.128C9.816 31.56 11.4 32.4 12.168 33.648C12.984 34.848 13.392 36.456 13.392 38.472C13.392 39.816 13.368 41.088 13.32 42.288C13.272 43.44 13.2 44.592 13.104 45.744C13.056 46.848 13.008 47.976 12.96 49.128C12.912 50.232 12.888 51.384 12.888 52.584C12.888 53.88 13.008 55.008 13.248 55.968C13.536 56.976 14.064 57.792 14.832 58.416C15.6 59.088 16.632 59.568 17.928 59.856C19.272 60.192 21 60.36 23.112 60.36H27.432V61.944H23.976Z" fill="#61DAFB"/>
<path d="M112.768 61.944V60.36H117.088C119.2 60.36 120.928 60.192 122.272 59.856C123.616 59.568 124.672 59.088 125.44 58.416C126.208 57.792 126.736 56.976 127.024 55.968C127.312 55.008 127.456 53.88 127.456 52.584C127.456 51.384 127.408 50.232 127.312 49.128C127.264 47.976 127.192 46.848 127.096 45.744C127.048 44.592 127 43.44 126.952 42.288C126.904 41.088 126.88 39.816 126.88 38.472C126.88 36.504 127.264 34.896 128.032 33.648C128.8 32.4 130.384 31.56 132.784 31.128V30.84C130.384 30.408 128.8 29.568 128.032 28.32C127.264 27.072 126.88 25.464 126.88 23.496C126.88 21.144 126.976 18.768 127.168 16.368C127.36 13.92 127.456 11.592 127.456 9.38399C127.456 8.08799 127.312 6.95999 127.024 5.99999C126.736 4.99199 126.208 4.17599 125.44 3.55199C124.672 2.87999 123.616 2.39999 122.272 2.11199C120.928 1.77599 119.2 1.60799 117.088 1.60799H112.768V0.0239868H116.224C118.432 0.0239868 120.352 0.167986 121.984 0.455986C123.664 0.743986 125.032 1.22399 126.088 1.89599C127.192 2.56799 128.008 3.50399 128.536 4.70399C129.112 5.85599 129.4 7.31999 129.4 9.09599C129.4 11.544 129.304 14.112 129.112 16.8C128.92 19.488 128.824 21.984 128.824 24.288C128.824 25.008 128.968 25.728 129.256 26.448C129.544 27.168 130.072 27.792 130.84 28.32C131.656 28.848 132.76 29.28 134.152 29.616C135.544 29.952 137.368 30.12 139.624 30.12V31.848C137.368 31.848 135.544 32.016 134.152 32.352C132.76 32.688 131.656 33.12 130.84 33.648C130.072 34.176 129.544 34.8 129.256 35.52C128.968 36.24 128.824 36.96 128.824 37.68C128.824 40.272 128.92 42.792 129.112 45.24C129.304 47.64 129.4 50.184 129.4 52.872C129.4 54.648 129.112 56.112 128.536 57.264C128.008 58.464 127.192 59.4 126.088 60.072C125.032 60.744 123.664 61.224 121.984 61.512C120.352 61.8 118.432 61.944 116.224 61.944H112.768Z" fill="#61DAFB"/>
</svg>
