<svg width="434" height="235" viewBox="0 0 434 235" fill="none" xmlns="http://www.w3.org/2000/svg">
<path fill-rule="evenodd" clip-rule="evenodd" d="M197.494 0.489406C154.42 2.27141 112.612 11.3774 78.417 26.4254C51.983 38.0574 29.28 54.5834 16.581 71.4364C4.42 87.5754 0 99.8264 0 117.391C0 126.642 0.457001 130.357 2.339 136.391C8.892 157.404 24.36 176.057 48.494 192.052C82.021 214.272 127.909 228.481 181.935 233.373C199.041 234.922 237.31 234.688 255.494 232.924C346.501 224.091 415.086 186.292 430.649 136.391C433.977 125.721 433.976 109.04 430.647 98.4264C422.732 73.1894 402.291 51.5204 369.463 33.5694C336.948 15.7894 284.554 2.49641 240.494 0.849407C233.069 0.571407 224.294 0.214408 220.994 0.0554081C217.694 -0.103592 207.119 0.0914063 197.494 0.489406ZM263.994 20.8124C322.664 28.9714 367.706 47.3084 394.084 73.7714C407.436 87.1674 414 99.7914 415.17 114.329C417.259 140.265 394.861 168.142 356.494 187.36C330.824 200.217 301.083 208.759 263.494 214.07C245.47 216.616 187.502 216.615 169.494 214.068C90.906 202.951 34.537 172.651 20.661 134.067C17.004 123.896 17.004 110.886 20.661 100.715C31.097 71.6984 68.129 45.5754 119.494 30.9964C139.094 25.4344 160.757 21.5314 185.994 19.0164C196.811 17.9384 252.556 19.2224 263.994 20.8124ZM183.101 88.1414C177.176 116.604 172.092 140.903 171.803 142.141C171.28 144.378 171.347 144.391 183.196 144.391H195.116L200.363 119.141C203.25 105.254 205.851 93.0704 206.143 92.0674C206.632 90.3944 207.826 90.2704 220.56 90.5674C241.609 91.0584 241.593 91.0204 234.626 122.659C232.354 132.982 230.494 142.095 230.494 142.909C230.494 144.134 232.533 144.391 242.257 144.391H254.02L258.772 122.141C264.75 94.1534 264.939 92.7574 263.492 87.3854C262.019 81.9144 256.4 76.0684 250.971 74.3584C248.68 73.6364 239.256 72.9134 228.744 72.6524C218.707 72.4044 210.494 71.7984 210.494 71.3074C210.494 70.8154 212.069 62.8834 213.994 53.6804C215.919 44.4764 217.494 36.8214 217.494 36.6694C217.494 36.5164 212.18 36.3914 205.684 36.3914H193.874L183.101 88.1414ZM81.141 120.087C76.323 146.379 72.151 168.679 71.87 169.641C71.404 171.239 72.402 171.391 83.356 171.391H95.352L96.388 166.141C96.957 163.254 97.912 157.966 98.51 154.391C99.108 150.816 99.81 147.165 100.07 146.277C100.473 144.901 103.089 144.579 117.768 144.099C141.478 143.322 150.261 140.624 158.804 131.491C166.949 122.783 171.037 111.145 170.256 98.8914C169.537 87.5994 164.268 79.9214 153.994 75.1924C149.19 72.9814 147.834 72.8794 119.447 72.5874L89.901 72.2844L81.141 120.087ZM279.494 72.9734C279.494 73.8844 262.523 166.223 261.82 169.141C261.28 171.38 261.336 171.391 273.34 171.391H285.403L285.983 168.141C286.302 166.353 287.356 160.391 288.325 154.891L290.088 144.891L307.041 144.301C318.725 143.895 325.846 143.168 329.951 141.963C346.337 137.154 354.651 128.544 358.951 111.931C363.231 95.3974 358.069 82.2584 344.718 75.7024L338.994 72.8914L309.244 72.5864C292.881 72.4194 279.494 72.5934 279.494 72.9734ZM140.163 92.3284C145.219 94.6234 146.872 97.4154 146.791 103.52C146.665 112.937 142.873 120.104 136.16 123.614C132.59 125.481 129.941 125.852 117.64 126.206C104.006 126.598 103.314 126.525 103.836 124.755C104.137 123.73 105.541 116.591 106.956 108.891C108.37 101.191 109.753 93.8794 110.03 92.6414C110.519 90.4504 110.868 90.3924 123.263 90.4134C133.586 90.4314 136.783 90.7934 140.163 92.3284ZM329.414 91.9764C335.324 94.3404 336.84 97.3184 336.26 105.422C335.625 114.29 332.506 120.012 326.481 123.358C322.405 125.622 320.677 125.886 307.607 126.236L293.22 126.621L293.787 124.256C294.099 122.955 295.531 115.591 296.97 107.891C298.408 100.191 299.82 93.1044 300.107 92.1414C300.568 90.5964 302.085 90.3914 313.041 90.3914C322.037 90.3914 326.544 90.8274 329.414 91.9764Z" fill="white"/>
</svg>
